<svg width="33" height="40" viewBox="0 0 33 40" fill="none" xmlns="http://www.w3.org/2000/svg">
<line y1="-0.25" x2="11.2237" y2="-0.25" transform="matrix(-0.866081 -0.499904 0.500096 -0.86597 21.2703 22.8054)" stroke="#625D5D" stroke-width="0.5"/>
<line y1="-0.25" x2="21.0417" y2="-0.25" transform="matrix(-0.500096 0.86597 -0.866081 -0.499904 22.3983 4.02026)" stroke="#625D5D" stroke-width="0.5"/>
<line y1="-0.25" x2="21.0417" y2="-0.25" transform="matrix(-0.500096 0.86597 -0.866081 -0.499904 26.6509 6.47485)" stroke="#625D5D" stroke-width="0.5"/>
<line y1="-0.25" x2="21.0417" y2="-0.25" transform="matrix(-0.500096 0.86597 -0.866081 -0.499904 26.6509 6.47485)" stroke="#625D5D" stroke-width="0.5"/>
<line y1="-0.25" x2="14.0296" y2="-0.25" transform="matrix(-0.866081 -0.499904 0.500096 -0.86597 24.5902 19.8625)" stroke="#625D5D" stroke-width="0.5"/>
<line y1="-0.25" x2="16.8355" y2="-0.25" transform="matrix(-0.866081 -0.499904 0.500096 -0.86597 27.9098 16.9197)" stroke="#625D5D" stroke-width="0.5"/>
<line y1="-0.25" x2="14.0296" y2="-0.25" transform="matrix(-0.866081 -0.499904 0.500096 -0.86597 28.7993 12.574)" stroke="#625D5D" stroke-width="0.5"/>
<line y1="-0.25" x2="11.2237" y2="-0.25" transform="matrix(-0.866081 -0.499904 0.500096 -0.86597 28.9871 9.44312)" stroke="#625D5D" stroke-width="0.5"/>
<path d="M26.7749 17.8839C25.2739 20.483 23.1339 22.3629 20.9077 23.3137C18.6816 24.2645 16.4016 24.2773 14.5554 23.2117C12.7092 22.1461 11.5803 20.1657 11.2909 17.7631C11.0014 15.3603 11.5599 12.5675 13.0609 9.96843C14.5619 7.36937 16.702 5.48946 18.9282 4.53863C21.1542 3.58788 23.4342 3.57506 25.2805 4.64067C27.1267 5.70628 28.2556 7.68668 28.545 10.0893C28.8344 12.4921 28.2759 15.2849 26.7749 17.8839Z" stroke="#370A0A"/>
<path d="M21.2703 22.8052C19.5562 23.4356 13.7716 26.252 13.4157 27.9903M11.55 17.1948C11.861 18.9941 12.3135 25.4104 10.9856 26.5877" stroke="#370A0A"/>
<rect width="5.6114" height="11.2226" transform="matrix(0.866087 0.499893 -0.500107 0.865963 10.4727 24.6711)" fill="#7BCD7E"/>
<line y1="-0.5" x2="5.61183" y2="-0.5" transform="matrix(0.866081 0.499904 -0.500096 0.86597 8.36804 28.3154)" stroke="#1B7A1F"/>
<line y1="-0.5" x2="5.61183" y2="-0.5" transform="matrix(0.866081 0.499904 -0.500096 0.86597 6.26318 31.9597)" stroke="#1B7A1F"/>
<ellipse cx="27.3594" cy="20.3391" rx="4.91067" ry="4.90941" fill="#E1CC5B"/>
<mask id="mask0_100_7368" style="mask-type:alpha" maskUnits="userSpaceOnUse" x="22" y="15" width="11" height="11">
<ellipse cx="27.3594" cy="20.3391" rx="4.91067" ry="4.90941" fill="#E1CC5B"/>
</mask>
<g mask="url(#mask0_100_7368)">
<path d="M33.3232 18.2351C33.3232 18.8563 32.9454 19.4616 32.2462 19.9275C31.5495 20.3919 30.5669 20.6904 29.464 20.6904C28.3611 20.6904 27.3785 20.3919 26.6818 19.9275C25.9827 19.4616 25.6049 18.8563 25.6049 18.2351C25.6049 17.6139 25.9827 17.0086 26.6818 16.5426C27.3785 16.0783 28.3611 15.7797 29.464 15.7797C30.5669 15.7797 31.5495 16.0783 32.2462 16.5426C32.9454 17.0086 33.3232 17.6139 33.3232 18.2351Z" stroke="white" stroke-width="0.7"/>
</g>
</svg>
