<svg width="18" height="26" viewBox="0 0 18 26" fill="none" xmlns="http://www.w3.org/2000/svg">
<path d="M0 0L3.87444 -6.77429e-07L3.87444 24.5381L4.29038e-06 24.5381L0 0Z" fill="#EBE9E5"/>
<path d="M0 16.7891L3.87444 16.7891L3.87444 25.1837L1.46776e-06 25.1837L0 16.7891Z" fill="#D6AF65"/>
<ellipse cx="1.93722" cy="0.64574" rx="1.93722" ry="0.64574" fill="#484040"/>
<ellipse cx="1.93722" cy="25.1848" rx="1.93722" ry="0.64574" fill="#D6AF65"/>
<ellipse cx="1.93722" cy="1.93676" rx="1.93722" ry="0.64574" fill="#484040"/>
<path d="M0 0.646484L3.87444 0.646484L3.87444 1.93796L2.25809e-07 1.93796L0 0.646484Z" fill="#484040"/>
<path d="M7.01172 0L10.8862 -6.77429e-07L10.8862 24.5381L7.01172 24.5381L7.01172 0Z" fill="#EBE9E5"/>
<path d="M7.01172 16.7891L10.8862 16.7891L10.8862 25.1837L7.01172 25.1837L7.01172 16.7891Z" fill="#D6AF65"/>
<ellipse cx="8.94894" cy="0.64574" rx="1.93722" ry="0.64574" fill="#484040"/>
<ellipse cx="8.94894" cy="25.1848" rx="1.93722" ry="0.64574" fill="#D6AF65"/>
<ellipse cx="8.94894" cy="1.93676" rx="1.93722" ry="0.64574" fill="#484040"/>
<path d="M7.01172 0.646484L10.8862 0.646484L10.8862 1.93796L7.01172 1.93796L7.01172 0.646484Z" fill="#484040"/>
<path d="M14.0234 0L17.8978 -6.77429e-07L17.8979 24.5381L14.0234 24.5381L14.0234 0Z" fill="#EBE9E5"/>
<path d="M14.0234 16.7891L17.8978 16.7891L17.8978 25.1837L14.0234 25.1837L14.0234 16.7891Z" fill="#D6AF65"/>
<ellipse cx="15.9606" cy="0.64574" rx="1.93722" ry="0.64574" fill="#484040"/>
<ellipse cx="15.9606" cy="25.1848" rx="1.93722" ry="0.64574" fill="#D6AF65"/>
<ellipse cx="15.9606" cy="1.93676" rx="1.93722" ry="0.64574" fill="#484040"/>
<path d="M14.0234 0.646484L17.8978 0.646484L17.8978 1.93796L14.0234 1.93796L14.0234 0.646484Z" fill="#484040"/>
</svg>
